<svg xmlns="http://www.w3.org/2000/svg" xmlns:xlink="http://www.w3.org/1999/xlink" version="1.1" x="0px" y="0px" style="enable-background:new 0 0 500 500;" xml:space="preserve" viewBox="0 54.95 500 372.61">
<g id="Background_Complete">
	<g>
		<rect y="382.398" style="fill:#EBEBEB;" width="500" height="0.25"/>
		<rect x="416.779" y="398.494" style="fill:#EBEBEB;" width="33.122" height="0.25"/>
		<rect x="322.527" y="401.208" style="fill:#EBEBEB;" width="8.693" height="0.25"/>
		<rect x="396.586" y="389.208" style="fill:#EBEBEB;" width="19.192" height="0.25"/>
		<rect x="52.459" y="390.888" style="fill:#EBEBEB;" width="43.193" height="0.25"/>
		<rect x="104.556" y="390.888" style="fill:#EBEBEB;" width="6.333" height="0.25"/>
		<rect x="131.471" y="395.111" style="fill:#EBEBEB;" width="93.676" height="0.25"/>
		<path style="fill:#EBEBEB;" d="M237.014,337.8H43.915c-3.147,0-5.708-2.561-5.708-5.708V60.66c0-3.147,2.561-5.708,5.708-5.708    h193.099c3.146,0,5.707,2.561,5.707,5.708v271.432C242.721,335.239,240.16,337.8,237.014,337.8z M43.915,55.203    c-3.01,0-5.458,2.448-5.458,5.458v271.432c0,3.01,2.448,5.458,5.458,5.458h193.099c3.009,0,5.457-2.448,5.457-5.458V60.66    c0-3.009-2.448-5.458-5.457-5.458H43.915z"/>
		<path style="fill:#EBEBEB;" d="M453.31,337.8H260.212c-3.147,0-5.707-2.561-5.707-5.708V60.66c0-3.147,2.561-5.708,5.707-5.708    H453.31c3.148,0,5.708,2.561,5.708,5.708v271.432C459.019,335.239,456.458,337.8,453.31,337.8z M260.212,55.203    c-3.009,0-5.457,2.448-5.457,5.458v271.432c0,3.01,2.448,5.458,5.457,5.458H453.31c3.01,0,5.458-2.448,5.458-5.458V60.66    c0-3.009-2.448-5.458-5.458-5.458H260.212z"/>
	</g>
	<g>
		
			<rect x="55.408" y="308.181" transform="matrix(-1 -1.224647e-16 1.224647e-16 -1 197.2324 687.359)" style="fill:#E0E0E0;" width="86.417" height="70.997"/>
		<g>
			<path style="fill:#EBEBEB;" d="M54.821,309.883v67.594h-3.474v3.71h94.538v-3.71h-2.59v-67.594h2.59v-3.71H51.347v3.71H54.821z      M123.44,377.476h-5.877v-67.594h5.877V377.476z M126.141,309.883h5.877v67.594h-5.877V309.883z M114.863,377.476h-5.877v-67.594     h5.877V377.476z M106.285,377.476h-5.877v-67.594h5.877V377.476z M97.708,377.476h-5.877v-67.594h5.877V377.476z M89.131,377.476     h-5.877v-67.594h5.877V377.476z M80.553,377.476h-5.877v-67.594h5.877V377.476z M71.976,377.476h-5.877v-67.594h5.877V377.476z      M140.595,377.476h-5.877v-67.594h5.877V377.476z M57.522,309.883h5.877v67.594h-5.877V309.883z"/>
		</g>
	</g>
	<g>
		
			<rect x="55.408" y="232.821" transform="matrix(-1 -1.224647e-16 1.224647e-16 -1 197.2324 536.639)" style="fill:#E0E0E0;" width="86.417" height="70.997"/>
		<g>
			<path style="fill:#F0F0F0;" d="M54.821,234.523v67.594h-3.474v3.71h94.538v-3.71h-2.59v-67.594h2.59v-3.71H51.347v3.71H54.821z      M123.44,302.116h-5.877v-67.594h5.877V302.116z M126.141,234.523h5.877v67.594h-5.877V234.523z M114.863,302.116h-5.877v-67.594     h5.877V302.116z M106.285,302.116h-5.877v-67.594h5.877V302.116z M97.708,302.116h-5.877v-67.594h5.877V302.116z M89.131,302.116     h-5.877v-67.594h5.877V302.116z M80.553,302.116h-5.877v-67.594h5.877V302.116z M71.976,302.116h-5.877v-67.594h5.877V302.116z      M140.595,302.116h-5.877v-67.594h5.877V302.116z M57.522,234.523h5.877v67.594h-5.877V234.523z"/>
		</g>
	</g>
	<g>
		
			<rect x="55.408" y="157.931" transform="matrix(-1 -1.224647e-16 1.224647e-16 -1 197.2324 386.8596)" style="fill:#E6E6E6;" width="86.417" height="70.997"/>
		<g>
			<path style="fill:#F5F5F5;" d="M54.821,159.633v67.594h-3.474v3.71h94.538v-3.71h-2.59v-67.594h2.59v-3.71H51.347v3.71H54.821z      M123.44,227.227h-5.877v-67.594h5.877V227.227z M126.141,159.633h5.877v67.594h-5.877V159.633z M114.863,227.227h-5.877v-67.594     h5.877V227.227z M106.285,227.227h-5.877v-67.594h5.877V227.227z M97.708,227.227h-5.877v-67.594h5.877V227.227z M89.131,227.227     h-5.877v-67.594h5.877V227.227z M80.553,227.227h-5.877v-67.594h5.877V227.227z M71.976,227.227h-5.877v-67.594h5.877V227.227z      M140.595,227.227h-5.877v-67.594h5.877V227.227z M57.522,159.633h5.877v67.594h-5.877V159.633z"/>
		</g>
	</g>
	<g>
		
			<rect x="159.946" y="308.181" transform="matrix(-1 -1.224647e-16 1.224647e-16 -1 406.3087 687.359)" style="fill:#E0E0E0;" width="86.418" height="70.997"/>
		<g>
			<path style="fill:#EBEBEB;" d="M159.359,309.883v67.594h-3.474v3.71h94.538v-3.71h-2.59v-67.594h2.59v-3.71h-94.538v3.71H159.359     z M227.978,377.476h-5.877v-67.594h5.877V377.476z M230.679,309.883h5.877v67.594h-5.877V309.883z M219.401,377.476h-5.877     v-67.594h5.877V377.476z M210.824,377.476h-5.877v-67.594h5.877V377.476z M202.246,377.476h-5.877v-67.594h5.877V377.476z      M193.669,377.476h-5.877v-67.594h5.877V377.476z M185.091,377.476h-5.877v-67.594h5.877V377.476z M176.514,377.476h-5.877     v-67.594h5.877V377.476z M245.133,377.476h-5.877v-67.594h5.877V377.476z M162.06,309.883h5.877v67.594h-5.877V309.883z"/>
		</g>
	</g>
	<g>
		
			<rect x="159.946" y="232.821" transform="matrix(-1 -1.224647e-16 1.224647e-16 -1 406.3087 536.639)" style="fill:#E0E0E0;" width="86.418" height="70.997"/>
		<g>
			<path style="fill:#F0F0F0;" d="M159.359,234.523v67.594h-3.474v3.71h94.538v-3.71h-2.59v-67.594h2.59v-3.71h-94.538v3.71H159.359     z M227.978,302.116h-5.877v-67.594h5.877V302.116z M230.679,234.523h5.877v67.594h-5.877V234.523z M219.401,302.116h-5.877     v-67.594h5.877V302.116z M210.824,302.116h-5.877v-67.594h5.877V302.116z M202.246,302.116h-5.877v-67.594h5.877V302.116z      M193.669,302.116h-5.877v-67.594h5.877V302.116z M185.091,302.116h-5.877v-67.594h5.877V302.116z M176.514,302.116h-5.877     v-67.594h5.877V302.116z M245.133,302.116h-5.877v-67.594h5.877V302.116z M162.06,234.523h5.877v67.594h-5.877V234.523z"/>
		</g>
	</g>
	<g>
		
			<rect x="159.946" y="157.931" transform="matrix(-1 -1.224647e-16 1.224647e-16 -1 406.3087 386.8596)" style="fill:#E6E6E6;" width="86.418" height="70.997"/>
		<g>
			<path style="fill:#F5F5F5;" d="M159.359,159.633v67.594h-3.474v3.71h94.538v-3.71h-2.59v-67.594h2.59v-3.71h-94.538v3.71H159.359     z M227.978,227.227h-5.877v-67.594h5.877V227.227z M230.679,159.633h5.877v67.594h-5.877V159.633z M219.401,227.227h-5.877     v-67.594h5.877V227.227z M210.824,227.227h-5.877v-67.594h5.877V227.227z M202.246,227.227h-5.877v-67.594h5.877V227.227z      M193.669,227.227h-5.877v-67.594h5.877V227.227z M185.091,227.227h-5.877v-67.594h5.877V227.227z M176.514,227.227h-5.877     v-67.594h5.877V227.227z M245.133,227.227h-5.877v-67.594h5.877V227.227z M162.06,159.633h5.877v67.594h-5.877V159.633z"/>
		</g>
	</g>
	<g>
		
			<ellipse transform="matrix(0.7071 -0.7071 0.7071 0.7071 7.8357 201.9987)" style="fill:#E0E0E0;" cx="247.752" cy="91.541" rx="23.554" ry="23.554"/>
		
			<ellipse transform="matrix(0.8358 -0.549 0.549 0.8358 -9.58 151.0471)" style="fill:#F0F0F0;" cx="247.752" cy="91.541" rx="20.027" ry="20.027"/>
		
			<polyline style="fill:#F0F0F0;stroke:#E0E0E0;stroke-width:2;stroke-linecap:round;stroke-linejoin:round;stroke-miterlimit:10;" points="    248.697,77.802 248.697,91.802 257.974,86.552   "/>
	</g>
	<g>
		<rect x="105.208" y="69.673" style="fill:#EBEBEB;" width="46.252" height="61.261"/>
		<rect x="107.179" y="71.561" style="fill:#F5F5F5;" width="42.314" height="57.48"/>
		<g>
			<path style="fill:#EBEBEB;" d="M134.089,108.461c0.812-3.572,8.471-5.236,11.049-2.311c2.578,2.925-0.14,8.364-4.911,8.572     C135.685,114.921,132.861,113.863,134.089,108.461z"/>
			<path style="fill:#EBEBEB;" d="M138.734,102.346c-2.288,0.033-2.959-5.408-1.168-5.875     C139.357,96.004,141.771,102.302,138.734,102.346z"/>
			<path style="fill:#EBEBEB;" d="M143.407,102.346c-0.817-0.431-2.492-5.061-0.467-5.351     C144.964,96.705,147.457,104.483,143.407,102.346z"/>
			<path style="fill:#EBEBEB;" d="M133.516,104.65c0.48-0.302,1.246-4.742-1.635-5.253     C128.999,98.886,130.791,106.364,133.516,104.65z"/>
			<path style="fill:#EBEBEB;" d="M132.196,110.334c0.985-1.545-0.393-4.283-2.262-4.049     C128.065,106.518,130.409,113.137,132.196,110.334z"/>
		</g>
		<g>
			<path style="fill:#EBEBEB;" d="M118.239,107.36c0.376-1.654,3.923-2.425,5.117-1.07s-0.065,3.873-2.274,3.97     C118.978,110.352,117.67,109.862,118.239,107.36z"/>
			<path style="fill:#EBEBEB;" d="M120.39,104.529c-1.059,0.015-1.37-2.504-0.541-2.721     C120.679,101.592,121.797,104.508,120.39,104.529z"/>
			<path style="fill:#EBEBEB;" d="M122.554,104.529c-0.378-0.2-1.154-2.344-0.216-2.478     C123.276,101.916,124.43,105.518,122.554,104.529z"/>
			<path style="fill:#EBEBEB;" d="M117.974,105.595c0.222-0.14,0.577-2.196-0.757-2.433     C115.882,102.926,116.712,106.39,117.974,105.595z"/>
			<path style="fill:#EBEBEB;" d="M117.363,108.228c0.456-0.716-0.182-1.983-1.048-1.875     C115.449,106.461,116.535,109.526,117.363,108.228z"/>
		</g>
		<g>
			<path style="fill:#EBEBEB;" d="M122.149,93.306c0.376-1.654,3.923-2.425,5.117-1.07c1.194,1.355-0.065,3.874-2.274,3.97     C122.888,96.297,121.58,95.807,122.149,93.306z"/>
			<path style="fill:#EBEBEB;" d="M124.3,90.474c-1.06,0.015-1.37-2.504-0.541-2.721C124.589,87.537,125.707,90.454,124.3,90.474z"/>
			<path style="fill:#EBEBEB;" d="M126.464,90.474c-0.378-0.2-1.154-2.344-0.216-2.478C127.186,87.861,128.34,91.463,126.464,90.474     z"/>
			<path style="fill:#EBEBEB;" d="M121.884,91.541c0.222-0.14,0.577-2.196-0.757-2.433     C119.792,88.871,120.622,92.335,121.884,91.541z"/>
			<path style="fill:#EBEBEB;" d="M121.273,94.173c0.456-0.715-0.182-1.983-1.048-1.875     C119.359,92.406,120.445,95.471,121.273,94.173z"/>
		</g>
		<g>
			<path style="fill:#EBEBEB;" d="M136.553,88.955c0.376-1.654,3.923-2.425,5.117-1.07c1.194,1.354-0.065,3.873-2.274,3.97     C137.292,91.947,135.984,91.457,136.553,88.955z"/>
			<path style="fill:#EBEBEB;" d="M138.704,86.123c-1.059,0.015-1.37-2.504-0.541-2.721     C138.993,83.186,140.111,86.103,138.704,86.123z"/>
			<path style="fill:#EBEBEB;" d="M140.868,86.123c-0.378-0.2-1.154-2.344-0.216-2.478     C141.589,83.511,142.744,87.113,140.868,86.123z"/>
			<path style="fill:#EBEBEB;" d="M136.288,87.19c0.222-0.14,0.577-2.196-0.757-2.433C134.196,84.521,135.025,87.984,136.288,87.19z     "/>
			<path style="fill:#EBEBEB;" d="M135.676,89.823c0.456-0.716-0.182-1.983-1.048-1.875     C133.763,88.055,134.849,91.121,135.676,89.823z"/>
		</g>
	</g>
	<g>
		<rect x="304.227" y="115.962" style="fill:#F5F5F5;" width="60.501" height="80.135"/>
		<rect x="306.806" y="118.432" style="fill:#E0E0E0;" width="55.351" height="75.189"/>
		<path style="fill:#EBEBEB;" d="M319.681,191.014h9.129v-31.244l0,0c-5.042,0-9.129,4.087-9.129,9.129V191.014z"/>
		<path style="fill:#F5F5F5;" d="M317.144,191.014h11.666v-2.67c0-2.484-2.014-4.498-4.498-4.498l0,0    C320.353,183.847,317.144,187.056,317.144,191.014L317.144,191.014z"/>
		<rect x="325.321" y="156.027" style="fill:#F5F5F5;" width="20.734" height="34.034"/>
		<path style="fill:#EBEBEB;" d="M350.494,190.061h-8.88v-30.392l0,0c4.904,0,8.88,3.976,8.88,8.88V190.061z"/>
		<path style="fill:#F5F5F5;" d="M353.674,191.014h-11.666v-2.67c0-2.484,2.014-4.498,4.498-4.498l0,0    C350.465,183.847,353.674,187.056,353.674,191.014L353.674,191.014z"/>
		<g>
			<path style="fill:#F0F0F0;" d="M323.86,134.953c-2.775-2.147-4.718-6.664-6.299-12.209c7.88,0.851,13.371,3.307,15.261,8.183     L323.86,134.953z"/>
			<path style="fill:#E0E0E0;" d="M319.131,124.238c0.573,3.226,2.149,6.451,4.729,9.676l4.481-2.922L319.131,124.238z"/>
			<path style="fill:#F0F0F0;" d="M315.742,149.435c0-5.113,6.047-14.807,9.957-17.404c3.909-2.598,13.512-3.507,17.299-0.649     c3.787,2.857,6.124,14.287,6.124,18.703c0,4.416-0.988,5.096-3.287,7.533c-2.298,2.437-11.557,0.779-16.929,0     C323.535,156.838,315.742,154.548,315.742,149.435z"/>
			<path style="fill:#E0E0E0;" d="M335.472,141.642c0.2,1.233-0.138,2.313-0.754,2.413c-0.616,0.1-1.278-0.818-1.478-2.051     c-0.2-1.233,0.138-2.313,0.754-2.413C334.611,139.491,335.272,140.409,335.472,141.642z"/>
			<path style="fill:#E0E0E0;" d="M324.086,140.603c0.2,1.233-0.138,2.313-0.754,2.413c-0.616,0.1-1.278-0.818-1.478-2.051     c-0.2-1.233,0.138-2.313,0.754-2.413C323.225,138.452,323.886,139.37,324.086,140.603z"/>
			<polygon style="fill:#E0E0E0;" points="319.992,144.434 323.859,145.344 321.797,147.876    "/>
			<path style="fill:#E0E0E0;" d="M323.43,149.37c-0.509,0.055,1.85,4.081,0,3.735c0,0,0.824,0.576,1.798,0.107     c0,0,1.124,2.986,2.327,2.986c1.203,0,0.223-3.13,0.223-3.13s2.641-0.25,3.271-1.109     C331.048,151.959,324.174,154.124,323.43,149.37L323.43,149.37z"/>
			<path style="fill:#F0F0F0;" d="M338.062,132.615l7.553,11.04l1.37-5.555c0.848-4.281-0.483-9.264-3.643-14.837     C340.825,126.427,338.838,129.558,338.062,132.615z"/>
			<path style="fill:#E0E0E0;" d="M342.648,126.771c-1.284,0.898-2.493,3.941-3.698,7.144l4.7,6.87L342.648,126.771z"/>
		</g>
	</g>
	<g>
		<rect x="381.338" y="115.962" style="fill:#F5F5F5;" width="60.502" height="80.135"/>
		<rect x="383.917" y="118.432" style="fill:#EBEBEB;" width="55.351" height="75.189"/>
		<g>
			<path style="fill:#F5F5F5;" d="M398.092,157.385c-1.334,0-3.311,13.069-3.311,13.069s-2.77,1.051-5.567,1.652     c-2.797,0.601-2.797,7.21-2.797,7.21h11.674c0,0,3.758-7.661,3.849-9.914c0.091-2.253-0.513-7.811-1.514-9.914     C399.427,157.385,399.427,157.385,398.092,157.385z"/>
			<path style="fill:#FAFAFA;" d="M400.512,148.872c0,0-3.663,10.515-2.554,18.126c1.109,7.611,7.962,12.317,7.962,12.317h25.637     c0,0,5.285-3.388,5.207-6.509c-0.078-3.122,0.801-5.608-3.104-8.712c-3.906-3.104-14.123-3.205-14.123-3.205l-5.942-10.415     L400.512,148.872z"/>
			<path style="fill:#F0F0F0;" d="M410.176,157.385c-2.403,0-5.964,13.069-5.964,13.069s-4.99,1.051-10.028,1.652     c-5.038,0.601-5.038,7.21-5.038,7.21h21.03c0,0,6.769-7.661,6.933-9.914s-0.925-7.811-2.727-9.914     C412.58,157.385,412.58,157.385,410.176,157.385z"/>
			<path style="fill:#F0F0F0;" d="M433.994,165.496c-1.334,0-3.311,8.862-3.311,8.862s-2.77,0.713-5.567,1.12     c-2.797,0.408-2.797,4.889-2.797,4.889h11.674c0,0,3.758-5.195,3.849-6.723c0.091-1.528-0.513-5.297-1.514-6.723     C435.328,165.496,435.328,165.496,433.994,165.496z"/>
			<g>
				<polygon style="fill:#FAFAFA;" points="412.722,140.919 426.816,135.074 422.361,147.042     "/>
				<polygon style="fill:#E0E0E0;" points="424.845,137.773 419.769,145.395 421.785,146.676     "/>
				<path style="fill:#FAFAFA;" d="M419.365,139.799c4.291,3.256,8.767,5.554,4.347,11.737c0,0,5.111,3.372,2.218,5.937      c-2.893,2.565-9.734,4.887-15.021,3.184c-5.286-1.703-10.903-8.533-10.463-13.968      C400.886,141.254,412.064,134.261,419.365,139.799z"/>
				<polygon style="fill:#E0E0E0;" points="425.168,154.667 421.785,152.904 422.714,156.266     "/>
				<path style="fill:#E0E0E0;" d="M423.132,155.12c0,0-0.941,2.168-3.894,2.538c-2.953,0.37-3.485-2.683-3.485-2.683      s-1.035,4.218,0.946,5.028c1.981,0.811,2.386-1.555,2.386-1.555s1.641,0.879,4.243-0.048c0,0-1.686,0.168-2.392-0.392      C420.935,158.008,423.282,156.711,423.132,155.12z"/>
				<path style="fill:#E0E0E0;" d="M416.861,147.54c-0.358,0.418-0.48,0.902-0.271,1.081c0.209,0.179,0.669-0.014,1.027-0.432      c0.358-0.418,0.48-0.902,0.271-1.081C417.679,146.929,417.219,147.123,416.861,147.54z"/>
				<path style="fill:#E0E0E0;" d="M422.733,150.516c-0.358,0.418-0.48,0.902-0.271,1.081c0.209,0.179,0.669-0.014,1.027-0.432      c0.358-0.418,0.48-0.902,0.271-1.081C423.552,149.905,423.092,150.098,422.733,150.516z"/>
				<polygon style="fill:#FAFAFA;" points="404.377,140.903 417.702,129.619 416.923,141.374 407.961,146.049     "/>
				<polygon style="fill:#E0E0E0;" points="415.96,133.321 409.483,145.255 415.96,141.876     "/>
			</g>
		</g>
	</g>
</g>
<g id="Background_Simple" style="display:none;">
	<g style="display:inline;">
		<path style="fill:#407BFF;" d="M166.834,89.922c2.194-2.411,4.543-4.676,7.028-6.771c16.753-14.12,39.037-20.814,60.947-20.749    c29.79,0.088,59.603,12.705,79.408,34.959c19.805,22.254,28.886,53.994,22.542,83.101c-1.809,8.298-4.792,16.353-5.833,24.781    c-1.041,8.428,0.156,17.652,5.744,24.047c9.314,10.658,26.319,9.257,39.653,4.508c13.334-4.75,26.676-12.057,40.718-10.281    c14.472,1.83,25.169,13.683,28.492,27.411c3.368,13.916-3.396,30.921-8.963,43.814c-12.386,28.684-34.12,53.438-61.508,68.619    c-23.395,12.968-51.062,19.122-77.362,14.243c-26.3-4.878-50.804-21.532-62.474-45.601c-6.279-12.951-10.556-29.439-24.124-34.243    c-8.731-3.091-18.43,0.091-26.608,4.437c-15.997,8.501-29.666,21.529-46.855,27.248c-23.004,7.653-49.818,0.158-66.943-17.003    c-17.126-17.16-24.602-42.844-21.366-66.871c2.266-16.829,9.945-33.49,23.54-43.665c12.88-9.639,29.576-12.558,45.652-13.176    c8.975-0.345,18.929-0.421,25.503-6.541c10.518-9.792,5.298-26.847,4.188-41.175C146.769,122.411,154.238,103.767,166.834,89.922z    "/>
		<path style="opacity:0.9;fill:#FFFFFF;" d="M166.834,89.922c2.194-2.411,4.543-4.676,7.028-6.771    c16.753-14.12,39.037-20.814,60.947-20.749c29.79,0.088,59.603,12.705,79.408,34.959c19.805,22.254,28.886,53.994,22.542,83.101    c-1.809,8.298-4.792,16.353-5.833,24.781c-1.041,8.428,0.156,17.652,5.744,24.047c9.314,10.658,26.319,9.257,39.653,4.508    c13.334-4.75,26.676-12.057,40.718-10.281c14.472,1.83,25.169,13.683,28.492,27.411c3.368,13.916-3.396,30.921-8.963,43.814    c-12.386,28.684-34.12,53.438-61.508,68.619c-23.395,12.968-51.062,19.122-77.362,14.243c-26.3-4.878-50.804-21.532-62.474-45.601    c-6.279-12.951-10.556-29.439-24.124-34.243c-8.731-3.091-18.43,0.091-26.608,4.437c-15.997,8.501-29.666,21.529-46.855,27.248    c-23.004,7.653-49.818,0.158-66.943-17.003c-17.126-17.16-24.602-42.844-21.366-66.871c2.266-16.829,9.945-33.49,23.54-43.665    c12.88-9.639,29.576-12.558,45.652-13.176c8.975-0.345,18.929-0.421,25.503-6.541c10.518-9.792,5.298-26.847,4.188-41.175    C146.769,122.411,154.238,103.767,166.834,89.922z"/>
	</g>
</g>
<g id="Shadow_1_">
	<ellipse id="_x3C_Path_x3E__359_" style="fill:#F5F5F5;" cx="250" cy="416.238" rx="193.889" ry="11.323"/>
</g>
<g id="Dog">
	<g>
		<g>
			<path style="fill:#407BFF;" d="M301.999,243.432l-23.115-0.349c0,0-0.926,2.977-1.531,7.06c-1.153,1.491-2.667,3.488-3.782,3.647     c1.112-0.159,2.713,0.139,3.22-0.86c-1.077,2.13-2.165,3.528-2.019,5.917c0.546-0.664,1.093-1.328,1.639-1.992     c-1.148,2.609-1.56,5.541-1.175,8.374c0.572-0.627,0.897-1.472,0.895-2.322c0.442,2.314,1.432,4.524,2.864,6.4     c0.149-0.527,0.29-1.087,0.425-1.66c1.648,2.667,4.234,4.707,8.205,5.473c-3.843,4.389-13.777-3.57-18.989,1.974     c-1.392,1.481-2.447,3.586-1.575,5.773c0.872,2.188,37.982,0.734,42.382-5.637C306.277,267.098,301.999,243.432,301.999,243.432z     "/>
			<path style="opacity:0.2;" d="M301.999,243.432l-23.115-0.349c0,0-0.926,2.977-1.531,7.06c-1.153,1.491-2.667,3.488-3.782,3.647     c1.112-0.159,2.713,0.139,3.22-0.86c-1.077,2.13-2.165,3.528-2.019,5.917c0.546-0.664,1.093-1.328,1.639-1.992     c-1.148,2.609-1.56,5.541-1.175,8.374c0.572-0.627,0.897-1.472,0.895-2.322c0.442,2.314,1.432,4.524,2.864,6.4     c0.149-0.527,0.29-1.087,0.425-1.66c1.648,2.667,4.234,4.707,8.205,5.473c-3.843,4.389-13.777-3.57-18.989,1.974     c-1.392,1.481-2.447,3.586-1.575,5.773c0.872,2.188,37.982,0.734,42.382-5.637C306.277,267.098,301.999,243.432,301.999,243.432z     "/>
		</g>
		<g>
			<path style="fill:#407BFF;" d="M245.249,220.22l-0.527,9.736c0.593,5.838,2.532,11.655,5.967,17.448     c1.968,8.632-0.31,18.883-3.343,24.004c-0.641,1.083-4.577,2.688-5.618,3.095c-1.063,0.416-1.651,4.01-0.49,6.283     c1.161,2.272,10.078-0.306,13.565-0.117c3.487,0.189-1.062,0.808,3.075-0.189c0.824-0.199,2.223-1.346,1.752-3     c-1.393-4.893,1.384-15.527,2.494-27.462c3.711-10.667,2.173-18.146,2.173-18.146L245.249,220.22z"/>
			<path style="opacity:0.2;" d="M245.249,220.22l-0.527,9.736c0.593,5.838,2.532,11.655,5.967,17.448     c1.968,8.632-0.31,18.883-3.343,24.004c-0.641,1.083-4.577,2.688-5.618,3.095c-1.063,0.416-1.651,4.01-0.49,6.283     c1.161,2.272,10.078-0.306,13.565-0.117c3.487,0.189-1.062,0.808,3.075-0.189c0.824-0.199,2.223-1.346,1.752-3     c-1.393-4.893,1.384-15.527,2.494-27.462c3.711-10.667,2.173-18.146,2.173-18.146L245.249,220.22z"/>
		</g>
		<g>
			<path style="fill:#407BFF;" d="M398.334,280.524c1.476-0.581,2.362-0.96,2.362-0.96s-9.933-6.597-18.45-8.392     c-8.517-1.796-27.464,1.396-33.624-6.275c-3.908-4.866-6.027-8.199-7.113-10.13c-1.12-1.99-3.73-3.919-5.141-5.715     c-2.016-2.567-3.127-2.505-5.038-4.611c0,0-1.569-0.552,0.118,11.934c1.688,12.486,5.809,20.483,14.758,24.659     c4.825,2.252,19.136,6.079,28.785,5.736c4.151-0.147,10.57-1.61,15.305-3.105c-0.427-0.407-2.056-0.554-2.841-2.39     c2.414,1.45,4.11,1.527,6.128,1.131c0,0-1.35-0.08-1.98-1.826C394.03,281.75,396.553,281.226,398.334,280.524z"/>
			<path style="opacity:0.1;" d="M362.7,279.068c0.415,0.997,0.829,1.993,1.244,2.99c-1.729-0.178-3.323-1.337-4.025-2.927     c-0.016,0.995-0.032,1.99-0.048,2.985c-6.513-4.664-13.025-9.328-19.538-13.991c-0.624-0.447-3.345-5-4.105-5.111     c-1.394-0.205-4.987-4.297-5.546-3.004c-0.033,0.077,4.273,9.416,4.244,9.494c2.41,5.26,6,9.066,11.279,11.529     c4.825,2.251,19.136,6.079,28.784,5.736c1.424-0.051,2.989-0.246,4.62-0.537c-1.979-1.108-4.325-1.751-6.556-2.268     C369.259,283.085,365.122,282.12,362.7,279.068z"/>
		</g>
		<path style="fill:#407BFF;" d="M251.504,168.6c0,0-14.401,15.442-13.477,40.881c0.923,25.439,44.513,43.549,44.513,43.549    l7.076,15.152c2.581,5.527,8.137,9.051,14.237,9.03l30.112-0.105c7.606-25.349-18.322-67.692-31.21-81.203    c-12.888-13.511-15.111-36.465-15.111-36.465L251.504,168.6z"/>
		<path style="opacity:0.1;" d="M282.54,253.029l3.683-17.222l11.816,16.729l23.866,7.299l-3.612,18.182l-20.905-2.181    C290.432,273.756,287.084,262.759,282.54,253.029z"/>
		<g>
			<g>
				<path style="fill:#407BFF;" d="M286.223,137.207c-4.109-5.611-3.017-5.104-9.225-8.239c-2.848-1.439-4.054-2.353-9.31-4.07      c-3.033-0.991-13.636-0.444-13.945,2.732c-2.467-1.18-11.039-5.505-13.506-6.686c-3.997,4.195-4.77,14.833,3.975,19.261      c-0.725-0.197-1.45-0.395-2.175-0.592c-1.614-0.134-2.714,1.843-2.41,3.433c0.304,1.591,1.479,2.844,2.485,4.112      c4.045,5.098,5.931,11.855,5.11,18.311c-0.384,3.017-1.932,10.862-0.175,13.345c2.229,3.15,7.662-1.835,11.4-2.792      c6.199-1.586,12.408-3.491,17.84-6.873C287.25,162.322,294.817,148.942,286.223,137.207z"/>
				<path style="opacity:0.2;" d="M256.278,148.876c-2.209,0.323-4.39-0.605-6.434-1.505c-3.408-1.505-6.825-3.014-10.234-4.519      c-0.121-1.067,0.335-2.248,1.133-2.854c0.368-0.275,0.804-0.429,1.29-0.385c0.728,0.202,1.453,0.391,2.181,0.592      c-8.682-4.411-7.97-15.064-3.971-19.264c0.718,0.348,1.445,0.7,2.176,1.044l-1.697,3.299      c-3.727,9.43,11.003,17.088,19.311,19.006C260.587,146.445,258.482,148.562,256.278,148.876z"/>
				<path style="fill:#263238;" d="M257.6,130.014c0,0,3.121-0.281,4.275,0.262c1.154,0.544,2.025,2.7,2.025,2.7      s0.45-2.85-1.575-3.9C260.3,128.027,257.6,130.014,257.6,130.014z"/>
				<path style="opacity:0.1;" d="M249.517,165.644c1.204-1.6,3.144-2.853,5.121-2.534c-1.285-0.045-2.284-1.549-1.828-2.751      c0.387-1.021,1.702-1.499,2.698-1.121c-1.278-0.978-0.945-3.486,0.515-4.457c1.628-1.081,3.783-0.786,5.682-0.324      c-0.027-0.01-0.054-0.02-0.081-0.031c-5.627-2.139-11.347-3.998-17.227-5.289c-0.343-0.076-0.7-0.173-1.052-0.262      c3.184,4.846,4.609,10.839,3.877,16.595c-0.175,1.376-0.59,3.757-0.825,6.175c0.125-0.225,0.245-0.451,0.358-0.679      C247.649,169.173,248.313,167.244,249.517,165.644z"/>
			</g>
			<path style="fill:#263238;" d="M243.818,122.65c-1.26-0.603-2.521-1.206-3.781-1.809c-1.289,1.353-1.815,3.207-2.441,4.962     C240.109,126.204,242.314,124.701,243.818,122.65z"/>
			<g>
				<g>
					<path style="fill:#263238;" d="M287.31,157.684c-0.573,0.765-1.089,1.79-1.497,3.161c-0.04,0.141-0.046,0.279-0.026,0.408       c-1.518,3.391-4.584,6.201-9.152,8.358c-10.674,5.035-26.115,4.776-30.057,3.321c-0.496-0.191-1.049,0.065-1.24,0.562       c-0.164,0.467,0.04,0.972,0.468,1.192c0.034,0.018,0.068,0.035,0.107,0.044c4.682,1.739,20.628,1.771,31.549-3.386       c5.484-2.593,9.036-6.116,10.552-10.47c0.268-0.775,0.718-1.457,1.297-2.007L287.31,157.684z"/>
				</g>
				<g>
					<path style="fill:#407BFF;" d="M278.427,171.855c-0.183-1.078-0.933-2.471-0.158-3.242c-1.652,1.641-2.624,3.07-4.877,3.656       c0.452-0.707,0.905-1.413,1.357-2.12c-2.075,1.851-4.666,3.117-7.401,3.616c0.41-0.719,1.096-1.275,1.884-1.529       c-2.272,0.289-4.611,0.04-6.772-0.722c4.948-3.319,13.086-6.926,19.143-5.705C280.937,167.11,278.174,170.365,278.427,171.855z       "/>
					<path style="fill:#407BFF;" d="M259.067,175.059c-0.018-1.093-0.549-2.584,0.333-3.229c-1.881,1.372-3.058,2.638-5.374,2.876       c0.554-0.63,1.108-1.26,1.662-1.89c-2.331,1.516-5.084,2.376-7.863,2.456c0.514-0.648,1.277-1.095,2.094-1.227       c-2.29-0.058-4.564-0.658-6.585-1.737c5.392-2.533,13.982-4.868,19.785-2.746C262.266,170.747,259.043,173.547,259.067,175.059       z"/>
				</g>
			</g>
			<g>
				<path style="fill:#407BFF;" d="M296.254,155.688l1.25,1.075l-0.967-7.592l1.728,0.267l-1.908-4.903l2.303,1.185l-2.535-3.027      c-0.389-1.545-0.955-5.709-5.466-8.03c-4.621-2.377-11.699-3.788-11.699-3.788s-1.696,21.267,0.654,25.259      c2.35,3.992,7.164,8.746,12.641,8.183c2.417-0.249,3.535-4.185,3.998-8.63L296.254,155.688z"/>
				<path style="opacity:0.2;" d="M282.514,135.79c0.769,3.915-1.033,14.72,0.367,18.43c1.4,3.71,6.274,8.5,6.274,8.5l3.101,1.595      c-4.715,0.508-8.858-2.678-12.641-8.183c-1.887-5.406-1.753-15.201-0.654-25.259      C278.961,130.874,281.744,131.876,282.514,135.79z"/>
			</g>
			<path style="fill:#263238;" d="M253.639,146.602c-1.236-0.162-3.333-0.904-6.236-2.74c-1.15-1.44-2.365-3.876-4.349-5.466     c0.142,0.064,0.283,0.116,0.425,0.18c3.314,3.544,7.581,5.443,12.365,6.285C255.844,144.862,257.463,147.124,253.639,146.602z"/>
			<path style="fill:#E8483F;" d="M247.403,143.862c-1.072-0.681-2.252-1.508-3.54-2.517c-0.032-0.022-0.058-0.052-0.081-0.069     c-0.128-0.102-0.264-0.209-0.408-0.322c-0.152-0.118-0.304-0.236-0.458-0.368c-1.113-0.874-2.498-0.906-4.097-1.053     c-0.854-0.071-1.74-0.046-2.557-0.337c-0.809-0.285-1.555-0.996-1.548-1.86c0.004-0.842,0.751-1.539,1.563-1.744     c0.82-0.199,1.677,0.002,2.465,0.284c1.584,0.57,3.026,1.476,4.314,2.519c0.161,0.129,0.297,0.254,0.422,0.377     C245.21,140.352,246.338,142.53,247.403,143.862z"/>
		</g>
		<path style="fill:#407BFF;" d="M234.362,199.404c1.091-0.072,2.62,0.335,3.191-0.597c-1.213,1.987-2.379,3.264-2.426,5.592    c0.583-0.604,1.165-1.208,1.747-1.812c-1.32,2.447-1.951,5.261-1.803,8.038c0.604-0.566,0.987-1.362,1.051-2.187    c0.246,2.277,1.03,4.495,2.271,6.42c2.082-5.582,3.706-14.334,1.114-19.944C238.397,195.863,235.871,199.305,234.362,199.404z"/>
		<path style="fill:#407BFF;" d="M239.585,183.663c1.049,0.306,2.347,1.213,3.202,0.532c-1.821,1.451-3.353,2.251-4.195,4.422    c0.754-0.368,1.508-0.736,2.262-1.103c-2.079,1.847-3.636,4.274-4.448,6.934c0.761-0.325,1.394-0.941,1.737-1.695    c-0.549,2.224-0.572,4.576-0.066,6.81c3.869-4.531,8.392-12.197,7.88-18.355C244.59,181.719,241.037,184.087,239.585,183.663z"/>
		<path style="fill:#407BFF;" d="M329.688,245.084l-23.115-0.349c0,0-0.927,2.977-1.531,7.06c-1.153,1.491-2.667,3.488-3.782,3.647    c1.112-0.159,2.713,0.139,3.22-0.86c-1.077,2.13-2.165,3.528-2.019,5.917c0.547-0.664,1.093-1.328,1.639-1.992    c-1.149,2.609-1.56,5.541-1.175,8.374c0.572-0.627,0.897-1.472,0.895-2.322c0.442,2.314,1.432,4.524,2.864,6.4    c0.149-0.527,0.29-1.087,0.425-1.66c1.648,2.667,4.234,4.707,8.205,5.473c-3.843,4.389-13.777-3.57-18.989,1.974    c-1.392,1.481-2.447,3.586-1.575,5.773c0.872,2.188,37.982,0.734,42.382-5.637C333.966,268.75,329.688,245.084,329.688,245.084z"/>
		<path style="opacity:0.1;" d="M273.107,248.296l-0.889-22.719l-5.267-3.222c-5.718-4.041-11.929-8.21-15.135-11.601l-5.419-10.208    c-5.589,3.227-8.235,8.009-8.003,14.312C244.371,228.794,256.11,239.856,273.107,248.296z"/>
		<g>
			<path style="fill:#407BFF;" d="M277.926,283.064C277.465,283.224,277.907,283.17,277.926,283.064L277.926,283.064z"/>
			<path style="fill:#407BFF;" d="M286,234.008l-19.049-11.653l-0.051,0.937c-0.062-0.101-0.116-0.21-0.181-0.308     c-0.958,1.103-2.944,4.882-4.421,5.205c1.068-0.233,2.641-0.058,3.066-1.065c-0.905,2.146-1.867,3.581-1.568,5.89     c0.486-0.684,0.973-1.368,1.459-2.051c-0.942,2.616-1.147,5.493-0.588,8.217c0.513-0.649,0.773-1.494,0.715-2.319     c0.581,2.216,1.687,4.292,3.2,6.011c0.062-0.296,0.121-0.604,0.178-0.915c0.941,2.532,2.136,5.059,3.632,7.582     c1.968,8.632-0.31,18.883-3.343,24.005c-0.642,1.083-4.577,2.688-5.618,3.095c-1.063,0.416-1.651,4.01-0.49,6.283     c1.161,2.272,10.078-0.306,13.565-0.117c1.185,0.064,1.435,0.177,1.42,0.26c0.24-0.084,0.718-0.223,1.654-0.449     c0.824-0.199,2.223-1.346,1.752-3c-1.393-4.893,1.385-15.527,2.494-27.461C287.537,241.487,286,234.008,286,234.008z"/>
		</g>
	</g>
</g>
<g id="Table">
	<g>
		<g>
			<rect x="208.941" y="283.436" style="fill:#407BFF;" width="203.971" height="7.676"/>
			<polygon style="opacity:0.6;fill:#FFFFFF;enable-background:new    ;" points="412.912,291.111 208.941,291.111 208.941,283.436      412.912,283.436 412.912,291.111    "/>
		</g>
		<rect x="208.941" y="283.436" style="opacity:0.2;enable-background:new    ;" width="203.971" height="3.838"/>
		<g>
			<path style="fill:#407BFF;" d="M416.709,284.436H205.143c-1.194,0-2.162-0.968-2.162-2.162l0,0c0-1.194,0.968-2.162,2.162-2.162     h211.565c1.194,0,2.162,0.968,2.162,2.162l0,0C418.871,283.468,417.903,284.436,416.709,284.436z"/>
			<path style="opacity:0.6;fill:#FFFFFF;enable-background:new    ;" d="M416.709,284.436H205.143     c-1.194,0-2.162-0.968-2.162-2.162l0,0c0-1.194,0.968-2.162,2.162-2.162h211.565c1.194,0,2.162,0.968,2.162,2.162l0,0     C418.871,283.468,417.903,284.436,416.709,284.436z"/>
		</g>
		<g>
			<rect x="208.941" y="291.111" style="fill:#407BFF;" width="10.283" height="122.03"/>
			<rect x="208.941" y="291.02" style="opacity:0.5;fill:#FFFFFF;" width="10.283" height="122.121"/>
			<rect x="208.941" y="291.02" style="opacity:0.2;" width="10.283" height="16.575"/>
		</g>
		<g>
			<rect x="402.628" y="291.111" style="fill:#407BFF;" width="10.283" height="122.03"/>
			<rect x="402.628" y="291.02" style="opacity:0.5;fill:#FFFFFF;" width="10.283" height="122.121"/>
			<rect x="402.628" y="291.02" style="opacity:0.2;" width="10.283" height="16.575"/>
		</g>
		<g>
			<rect x="271.879" y="291.111" style="fill:#407BFF;" width="10.283" height="122.03"/>
			<rect x="271.879" y="291.02" style="opacity:0.5;fill:#FFFFFF;" width="10.283" height="122.121"/>
			<rect x="271.879" y="291.02" style="opacity:0.2;" width="10.283" height="24"/>
		</g>
		<g>
			<rect x="339.852" y="291.111" style="fill:#407BFF;" width="10.283" height="122.03"/>
			<rect x="339.852" y="291.02" style="opacity:0.5;fill:#FFFFFF;" width="10.283" height="122.121"/>
			<rect x="339.852" y="291.02" style="opacity:0.2;" width="10.283" height="24"/>
		</g>
	</g>
</g>
<g id="Character">
	<g>
		<path style="fill:#E4897B;" d="M214.758,188.615l15.443-8.976c0,0,3.397,0.343,7.37-0.342c3.973-0.685,4.861-0.726,4.381-3.874    c-0.48-3.148,0.188-7.35-1.001-7.795c-1.189-0.445-9.608,3.115-11.066,5.519l-15.587,5.577L214.758,188.615z"/>
		<path style="fill:#407BFF;" d="M169.022,173.37v18.01c0,0,3.84,1.27,8.61,2.6c5.47,1.52,12.16,3.12,15.64,2.95    c6.5-0.32,36.587-15.705,36.587-15.705l-2.175-7.855c0,0-33.912,12.38-36.912,11.79S169.022,173.37,169.022,173.37z"/>
		<path style="opacity:0.2;enable-background:new    ;" d="M169.022,182.14v9.24c0,0,3.84,1.27,8.61,2.6    C175.872,188.62,171.482,184.25,169.022,182.14z"/>
		<path style="fill:#E4897B;" d="M164.983,237.439c0,0,10.838,57.765,13.73,81.481c3.778,30.939,22.347,84.83,22.347,84.83h-5.925    c0,0-25.152-45.494-29.398-80.103c-17.301-35.369-18.698-78.923-18.698-78.923L164.983,237.439z"/>
		<path style="fill:#E4897B;" d="M153.728,236.517c0,0-1.345,58.757-3.421,82.559c-2.703,31.052,4.027,85.274,4.027,85.274h-5.55    c0,0-15.155-48.595-12.151-83.333c-9.611-38.182-1.969-81.083-1.969-81.083L153.728,236.517z"/>
		<path style="fill:#E4897B;" d="M150.748,179.989c-8.135-1.041-10.579-4.516-10.579-4.516c5.161-4.87,0.873-13.308,0.873-13.308    l9.791,1.828c-0.257,1.618-0.367,2.975-0.382,4.122c-0.074,5.943,2.613,6.001,2.613,6.001    C154.783,177.335,150.748,179.989,150.748,179.989z"/>
		<g>
			<path style="fill:#407BFF;" d="M168.852,222.85l-33.01,2.85c-0.52-8.2-1.04-14.46-3.51-24.24c-0.79-3.16-1.78-6.69-3.05-10.77     c-0.68-2.18-1.43-4.52-2.27-7.04c-0.63-1.91-1.31-3.94-2.06-6.08c4.49-1.43,9.06-2.54,13.7-3.31c4.89-0.87,9.85-1.39,14.82-1.56     c6.42-0.05,13.8,0.67,13.8,0.67s1.05,0.25,1.71,7.06C169.583,186.82,170.172,199.6,168.852,222.85z"/>
			<path style="fill:#2E353A;" d="M168.694,227.799l-32.982,2.721c-0.52-8.2-0.91-19.28-3.38-29.06c-0.79-3.16-1.78-6.69-3.05-10.77     c-0.68-2.18-1.43-4.52-2.27-7.04c-0.63-1.91-1.31-3.94-2.06-6.08c4.49-1.43,9.06-2.54,13.7-3.31c4.89-0.87,9.85-1.39,14.82-1.56     c6.42-0.05,13.8,0.67,13.8,0.67s1.05,0.25,1.71,7.06C169.583,186.82,170.014,204.549,168.694,227.799z"/>
		</g>
		<path style="opacity:0.2;enable-background:new    ;" d="M150.834,163.993c-0.257,1.618-0.367,2.975-0.382,4.122    c-6.614,0-9.409-5.95-9.409-5.95L150.834,163.993z"/>
		<g>
			<path style="fill:#407BFF;" d="M168.694,227.799l20.801,122.224c0,0-50.342,6.008-67.408,2.493c0,0-4.185-87.475,13.625-121.995     L168.694,227.799z"/>
			<path style="opacity:0.4;fill:#FFFFFF;enable-background:new    ;" d="M168.694,227.799l20.801,122.224     c0,0-50.342,6.008-67.408,2.493c0,0-4.185-87.475,13.625-121.995L168.694,227.799z"/>
		</g>
		<path style="fill:#407BFF;" d="M124.952,177.57l12.012-3.13l12.907,54.912l-3.593,136.153l-31.5-5.674    c2.6-49.97,6.776-96.88,17.006-132.032L124.952,177.57z"/>
		<path style="fill:#407BFF;" d="M169.022,173.37c6.063,16.999,5.197,35.463,1.962,54.429l31.5,120.001l-22.5,14.7l-14.833-134.701    c-0.294-19.149,0.207-38.479-10.817-55.176L169.022,173.37z"/>
		<path style="fill:#263238;" d="M192.913,401.746c0.032-0.724,8.925,0.032,8.925,0.032s5.361,5.688,10.656,7.053    c5.295,1.365,2.254,4.495-3.694,4.369c-5.948-0.126-10.487-0.222-14.714-0.312C189.861,412.8,192.578,409.255,192.913,401.746z"/>
		<path style="fill:#263238;" d="M146.333,401.746c0.032-0.724,8.926,0.032,8.926,0.032s5.36,5.688,10.656,7.053    c5.295,1.365,2.254,4.495-3.694,4.369c-5.948-0.126-10.488-0.222-14.714-0.312C143.28,412.8,145.998,409.255,146.333,401.746z"/>
		<polygon style="fill:#E4897B;" points="141.042,173.37 149.872,175.825 153.009,172.075   "/>
		<polygon style="fill:#407BFF;" points="149.872,175.825 145.032,181.966 136.902,174.893 141.042,170.053   "/>
		<polygon style="fill:#407BFF;" points="149.872,175.825 155.522,180 154.335,172.623 151.07,168.88   "/>
		<polygon style="opacity:0.2;" points="133.071,175.476 132.16,190.075 137.647,195.025 133.147,199.199 149.492,243.728     149.872,229.352 136.902,173.95   "/>
		<path style="opacity:0.2;" d="M154.335,172.623l3,0.127l10.575,12.938l-2.758,4.5l3.871,3.038l0.424,73.579l-4.295-39.005    C164.76,201.609,162.795,184.494,154.335,172.623z"/>
		<polygon style="opacity:0.2;" points="129.491,210.941 132.16,197.93 128.606,204.436   "/>
		<path style="opacity:0.1;" d="M129.199,237.439l7.704,20.837l-1.569,1.388l0.851,1.885c0,0,6.268,11.775,4.858,13.5    c-1.41,1.725-10.934-1.331-10.934-1.331L126.384,250L129.199,237.439z"/>
		<path style="fill:#E4897B;" d="M120.585,245.921l7.495,15.843c0,0-0.5,3.378,0,7.378s0.5,4.89,3.667,4.556    c3.167-0.333,7.333,0.528,7.833-0.639c0.5-1.167-2.667-9.742-5-11.31l-4.849-15.829H120.585z"/>
		<path style="fill:#407BFF;" d="M122.175,218.889c1.949-2.645,3.82-6.187,5.393-9.609c2.7-5.85,4.593-11.35,4.593-11.35    l-1.994-5.64l-5.222-14.72c0,0-3.452,4.809-8.684,22.86l-0.028-0.088l-0.967,3.563c-0.758,2.633-1.592,5.5-2.375,8.645    c0,0,0.002,0.036,0.004,0.088l-0.586,2.156c-0.084,0.164-0.176,0.331-0.287,0.506v0.01c0,0.179-0.002,0.363-0.003,0.551    l-1.852,6.824l14.953,35.592h9.674L122.175,218.889z"/>
		<g>
			<path style="fill:#263238;" d="M130.083,141.119c1.238-3.067,4.535-3.067,4.535-3.067l4.985,0.001l-3.783,9.88l0.225,12.379     l-1.672-3.77l-0.466,3.77c0,0-4.028-8.581-4.275-11.113C129.386,146.667,128.845,144.187,130.083,141.119z"/>
			<g>
				<path style="fill:#E4897B;" d="M145.421,135.775c8.512-0.466,11.501,3.941,12.605,12.678c1.38,10.919-0.624,18.84-11.395,17.081      C132.004,163.146,131.286,136.549,145.421,135.775z"/>
				<path style="fill:#A24E3F;" d="M152.498,148.278c0,0,1.301,2.159,2.67,3.395c0,0-0.665,1.197-2.191,1.086L152.498,148.278z"/>
				<g>
					<path style="fill:#2E353A;" d="M147.25,147.867c0.055,0.698-0.278,1.294-0.744,1.33c-0.465,0.037-0.887-0.5-0.942-1.198       c-0.055-0.698,0.278-1.294,0.744-1.33C146.773,146.633,147.195,147.169,147.25,147.867z"/>
					<path style="fill:#2E353A;" d="M146.117,146.718l1.472-0.715C147.589,146.003,146.932,147.341,146.117,146.718z"/>
				</g>
				<g>
					<path style="fill:#2E353A;" d="M155.919,147.043c0.055,0.698-0.278,1.294-0.744,1.33c-0.466,0.036-0.887-0.5-0.942-1.198       c-0.055-0.698,0.278-1.294,0.744-1.33C155.443,145.808,155.865,146.344,155.919,147.043z"/>
					<path style="fill:#2E353A;" d="M154.786,145.893l1.472-0.714C156.258,145.179,155.602,146.516,154.786,145.893z"/>
				</g>
				
					<path style="fill:none;stroke:#2E353A;stroke-width:0.7247;stroke-linecap:round;stroke-linejoin:round;stroke-miterlimit:10;" d="      M146.842,141.995c0,0-2.409-0.18-3.621,1.489"/>
				
					<path style="fill:none;stroke:#2E353A;stroke-width:0.7247;stroke-linecap:round;stroke-linejoin:round;stroke-miterlimit:10;" d="      M153.009,141.296c0,0,1.473-0.639,3.43,0.514"/>
				<path style="fill:#2E353A;" d="M151.919,156.175c-0.436,1.053-0.831,3.01-0.831,3.01c-0.184-0.004-0.368-0.008-0.551-0.021      c-2.491-0.115-3.609-0.991-4.093-1.927c-0.263-0.513-0.33-1.051-0.327-1.487c-0.002-0.504,0.112-0.864,0.112-0.864      c1.284,0.85,3.598,1.136,4.841,1.237C151.59,156.17,151.919,156.175,151.919,156.175z"/>
				<path style="fill:#FFFFFF;" d="M151.07,156.122l-0.268,0.881c-2.346-0.114-3.983-0.509-4.685-1.254      c-0.002-0.504,0.112-0.864,0.112-0.864C147.514,155.736,149.828,156.022,151.07,156.122z"/>
				<path style="fill:#DE5753;" d="M150.537,159.164c-2.491-0.115-3.609-0.991-4.093-1.927c0.847,0.072,1.861,0.253,2.741,0.676      C149.86,158.233,150.271,158.699,150.537,159.164z"/>
				<path style="fill:#263238;" d="M136.905,150.63c0,0,3.597-7.211,2.698-12.577c0,0,16.489-7.815,18.26,9.26      c0,0,0.815-15.292-13.835-14.829c-14.627,0.462-13.415,21.865-5.51,27.829C138.518,160.313,134.682,155.138,136.905,150.63z"/>
				<path style="fill:#E4897B;" d="M138.393,152.35c-0.132-1.367-1.673-3.609-4.206-3.192c-2.622,0.432-3.582,5.916,3.05,6.858      C138.188,156.152,138.669,155.203,138.393,152.35z"/>
			</g>
			<path style="fill:#263238;" d="M134.618,138.052c0,0-1.385-4.459,2.44-7.047c3.825-2.587,10.522-1.468,14.861,0     c4.339,1.468,8.764,14.173,8.764,14.173c-2.639-3.938-5.161-6.312-7.673-8.548l-12.014-0.112l-1.392,1.535L134.618,138.052z"/>
			<g>
				<path style="fill:#2E353A;" d="M128.39,142.95c-7.663-3.922-17.453,3.369-13.337,9.261c0.63,8.675,6.352,8.95,9.764,2.971      c4.964-3.99,3.651-7.444,1.711-10.845c-0.386,1.331,0.47,3.604-4.48,5.422l-1.13-0.704c3.448-4.081,5.609-3.004,7.884-2.251      L128.39,142.95z"/>
				<path style="fill:#2E353A;" d="M111.01,157.851c1.434-8.898,4.52-14.806,10.352-15.745l2.292-0.264      C117.565,143.138,113.527,148.853,111.01,157.851z"/>
				<path style="fill:#2E353A;" d="M114.56,157.193c-1.145-8.871,2.254-13.895,9.897-15.327l-3.925,0.413      C114.42,144.601,112.84,149.836,114.56,157.193z"/>
			</g>
			<path style="fill:#407BFF;" d="M128.333,142.366l0.439,4.709c0,0,0.265,0.351,0.748,0.305c0.483-0.046,0.639-0.428,0.639-0.428     l-0.323-4.668c0,0-0.182-0.52-0.728-0.499C128.562,141.805,128.333,142.366,128.333,142.366z"/>
		</g>
		<g>
			<g>
				<path style="fill:#263238;" d="M247.11,160.225c0.023,2.589-0.194,4.95-1.875,5.925c1.521,0.892,1.883,3.023,1.875,5.55h0.825      v-11.475H247.11z"/>
				<path style="opacity:0.6;fill:#FFFFFF;" d="M247.11,160.225c0.023,2.589-0.194,4.95-1.875,5.925      c1.521,0.892,1.883,3.023,1.875,5.55h0.825v-11.475H247.11z"/>
			</g>
			<g>
				<path style="fill:#263238;" d="M135.228,153.794c0,0,2.194,10.836,3.893,12.606c1.699,1.77,7.852,4.063,11.95,2.481      c4.097-1.582,7.023-2.468,8.214-5.43c1.191-2.962-0.874-5.606-0.874-5.606l-0.014-2.118c0,0,2.875,4.481,1.863,7.687      c-1.013,3.206-4.526,5.406-9.189,6.641c-4.663,1.234-11.811-0.728-13.236-3.178s-3.918-12.725-3.918-12.725L135.228,153.794z"/>
				<path style="opacity:0.5;fill:#FFFFFF;" d="M135.228,153.794c0,0,2.194,10.836,3.893,12.606c1.699,1.77,7.852,4.063,11.95,2.481      c4.097-1.582,7.023-2.468,8.214-5.43c1.191-2.962-0.874-5.606-0.874-5.606l-0.014-2.118c0,0,2.875,4.481,1.863,7.687      c-1.013,3.206-4.526,5.406-9.189,6.641c-4.663,1.234-11.811-0.728-13.236-3.178s-3.918-12.725-3.918-12.725L135.228,153.794z"/>
			</g>
			<g>
				<g>
					<path style="fill:#263238;" d="M200.19,236.521c-15.595,0-28.395-7.296-36.866-14.003       c-12.42-9.835-12.746-50.727-12.754-52.463l1-0.005c0.002,0.42,0.33,42.146,12.375,51.684       c9.809,7.767,25.512,16.342,44.605,13.072c16.344-2.795,17.976-5.374,24.842-16.227l0.695-1.097       c5.31-8.375,4.605-26.764,4.183-37.751c-0.18-4.691-0.31-8.081,0.03-9.422c1.207-4.756,7.205-4.811,7.46-4.811l0,1       c-0.055,0-5.476,0.058-6.491,4.057c-0.305,1.201-0.171,4.703-0.001,9.137c0.426,11.104,1.14,29.686-4.337,38.324l-0.694,1.097       c-7.059,11.157-8.736,13.808-25.519,16.679C205.795,236.293,202.948,236.521,200.19,236.521z"/>
				</g>
				<g style="opacity:0.3;">
					<path style="fill:#FFFFFF;" d="M200.19,236.521c-15.595,0-28.395-7.296-36.866-14.003       c-12.42-9.835-12.746-50.727-12.754-52.463l1-0.005c0.002,0.42,0.33,42.146,12.375,51.684       c9.809,7.767,25.512,16.342,44.605,13.072c16.344-2.795,17.976-5.374,24.842-16.227l0.695-1.097       c5.31-8.375,4.605-26.764,4.183-37.751c-0.18-4.691-0.31-8.081,0.03-9.422c1.207-4.756,7.205-4.811,7.46-4.811l0,1       c-0.055,0-5.476,0.058-6.491,4.057c-0.305,1.201-0.171,4.703-0.001,9.137c0.426,11.104,1.14,29.686-4.337,38.324l-0.694,1.097       c-7.059,11.157-8.736,13.808-25.519,16.679C205.795,236.293,202.948,236.521,200.19,236.521z"/>
				</g>
			</g>
		</g>
	</g>
</g>
<g id="Carrier">
	<g>
		<g>
			<g>
				<path style="fill:#407BFF;" d="M355.555,319.708l0.93-8.825c0.108-1.029,0.97-1.804,2.004-1.804h21.6      c1.034,0,1.895,0.776,2.004,1.804l0.93,8.825l3.89-0.41l-0.93-8.825c-0.319-3.025-2.854-5.306-5.895-5.306h-21.6      c-3.042,0-5.576,2.281-5.894,5.307l-0.93,8.824L355.555,319.708z"/>
			</g>
			<g style="opacity:0.3;enable-background:new    ;">
				<path d="M355.555,319.708l0.93-8.825c0.108-1.029,0.97-1.804,2.004-1.804h21.6c1.034,0,1.895,0.776,2.004,1.804l0.93,8.825      l3.89-0.41l-0.93-8.825c-0.319-3.025-2.854-5.306-5.895-5.306h-21.6c-3.042,0-5.576,2.281-5.894,5.307l-0.93,8.824      L355.555,319.708z"/>
			</g>
		</g>
		<path style="fill:#407BFF;" d="M274.039,361.385v5.203c0,1.995,1.616,3.612,3.612,3.612h0.574l10.575,35.571    c1.174,3.925,4.785,6.624,8.88,6.624h143.233c4.095,0,7.706-2.699,8.867-6.624l10.575-35.571h0.574    c1.995,0,3.612-1.617,3.612-3.612v-5.203c0-1.995-1.617-3.612-3.612-3.612h-0.574l-10.575-35.571    c-1.16-3.925-4.772-6.624-8.867-6.624H297.679c-4.094,0-7.706,2.699-8.88,6.624l-10.575,35.571h-0.574    C275.655,357.773,274.039,359.39,274.039,361.385z"/>
		<path style="opacity:0.3;fill:#FFFFFF;enable-background:new    ;" d="M278.224,370.2l10.575,35.571    c1.174,3.925,4.785,6.624,8.88,6.624h143.233c4.095,0,7.706-2.699,8.867-6.624l10.575-35.571H278.224z"/>
		<g style="opacity:0.4;enable-background:new    ;">
			<path d="M383.678,347.803c0.119,0,0.24-0.017,0.36-0.051c0.692-0.199,1.092-0.921,0.894-1.612l-6.018-20.978     c-0.198-0.692-0.921-1.091-1.613-0.894c-0.692,0.199-1.092,0.921-0.894,1.613l6.018,20.978     C382.589,347.431,383.111,347.803,383.678,347.803z"/>
		</g>
		<g style="opacity:0.4;enable-background:new    ;">
			<path d="M376.042,347.803c0.119,0,0.24-0.017,0.36-0.051c0.692-0.199,1.092-0.921,0.894-1.612l-6.019-20.978     c-0.199-0.692-0.921-1.091-1.613-0.894c-0.692,0.199-1.092,0.921-0.894,1.613l6.019,20.978     C374.953,347.431,375.475,347.803,376.042,347.803z"/>
		</g>
		<g style="opacity:0.4;enable-background:new    ;">
			<path d="M368.405,347.803c0.119,0,0.24-0.017,0.36-0.051c0.692-0.199,1.092-0.921,0.894-1.612l-6.018-20.978     c-0.199-0.692-0.92-1.091-1.613-0.894c-0.692,0.199-1.092,0.921-0.894,1.613l6.018,20.978     C367.317,347.431,367.839,347.803,368.405,347.803z"/>
		</g>
		<g style="opacity:0.4;enable-background:new    ;">
			<path d="M360.77,347.803c0.119,0,0.24-0.017,0.36-0.051c0.692-0.199,1.092-0.921,0.894-1.612l-6.018-20.978     c-0.199-0.692-0.921-1.091-1.613-0.894c-0.692,0.199-1.092,0.921-0.894,1.613l6.018,20.978     C359.681,347.431,360.203,347.803,360.77,347.803z"/>
		</g>
		<g style="opacity:0.4;enable-background:new    ;">
			<path d="M353.134,347.803c0.119,0,0.24-0.017,0.36-0.051c0.692-0.199,1.092-0.921,0.894-1.612l-6.018-20.978     c-0.199-0.692-0.921-1.091-1.613-0.894c-0.692,0.199-1.092,0.921-0.894,1.613l6.018,20.978     C352.045,347.431,352.567,347.803,353.134,347.803z"/>
		</g>
		<g style="opacity:0.4;enable-background:new    ;">
			<path d="M345.498,347.803c0.119,0,0.24-0.017,0.36-0.051c0.692-0.199,1.093-0.921,0.894-1.612l-6.019-20.978     c-0.199-0.692-0.921-1.091-1.613-0.894c-0.692,0.199-1.092,0.921-0.894,1.613l6.019,20.978     C344.409,347.431,344.932,347.803,345.498,347.803z"/>
		</g>
		<g style="opacity:0.4;enable-background:new    ;">
			<path d="M383.678,380.17c0.119,0,0.24,0.017,0.36,0.051c0.692,0.199,1.092,0.921,0.894,1.612l-6.018,20.978     c-0.198,0.692-0.921,1.091-1.613,0.894c-0.692-0.199-1.092-0.921-0.894-1.613l6.018-20.977     C382.589,380.542,383.111,380.17,383.678,380.17z"/>
		</g>
		<g style="opacity:0.4;enable-background:new    ;">
			<path d="M376.042,380.17c0.119,0,0.24,0.017,0.36,0.051c0.692,0.199,1.092,0.921,0.894,1.612l-6.019,20.978     c-0.199,0.692-0.921,1.091-1.613,0.894c-0.692-0.199-1.092-0.921-0.894-1.613l6.019-20.977     C374.953,380.542,375.475,380.17,376.042,380.17z"/>
		</g>
		<g style="opacity:0.4;enable-background:new    ;">
			<path d="M368.405,380.17c0.119,0,0.24,0.017,0.36,0.051c0.692,0.199,1.092,0.921,0.894,1.612l-6.018,20.978     c-0.199,0.692-0.92,1.091-1.613,0.894c-0.692-0.199-1.092-0.921-0.894-1.613l6.018-20.977     C367.317,380.542,367.839,380.17,368.405,380.17z"/>
		</g>
		<g style="opacity:0.4;enable-background:new    ;">
			<path d="M360.77,380.17c0.119,0,0.24,0.017,0.36,0.051c0.692,0.199,1.092,0.921,0.894,1.612l-6.018,20.978     c-0.199,0.692-0.921,1.091-1.613,0.894c-0.692-0.199-1.092-0.921-0.894-1.613l6.018-20.977     C359.681,380.542,360.203,380.17,360.77,380.17z"/>
		</g>
		<g style="opacity:0.4;enable-background:new    ;">
			<path d="M353.134,380.17c0.119,0,0.24,0.017,0.36,0.051c0.692,0.199,1.092,0.921,0.894,1.612l-6.018,20.978     c-0.199,0.692-0.921,1.091-1.613,0.894c-0.692-0.199-1.092-0.921-0.894-1.613l6.018-20.977     C352.045,380.542,352.567,380.17,353.134,380.17z"/>
		</g>
		<g style="opacity:0.4;enable-background:new    ;">
			<path d="M345.498,380.17c0.119,0,0.24,0.017,0.36,0.051c0.692,0.199,1.093,0.921,0.894,1.612l-6.019,20.978     c-0.199,0.692-0.921,1.091-1.613,0.894c-0.692-0.199-1.092-0.921-0.894-1.613l6.019-20.977     C344.409,380.542,344.932,380.17,345.498,380.17z"/>
		</g>
		<g style="opacity:0.4;enable-background:new    ;">
			<path d="M430.485,347.803c0.119,0,0.24-0.017,0.36-0.051c0.692-0.199,1.092-0.921,0.894-1.612l-6.018-20.978     c-0.199-0.692-0.921-1.091-1.613-0.894c-0.692,0.199-1.092,0.921-0.894,1.613l6.018,20.978     C429.396,347.431,429.918,347.803,430.485,347.803z"/>
		</g>
		<g style="opacity:0.4;enable-background:new    ;">
			<path d="M422.849,347.803c0.119,0,0.24-0.017,0.36-0.051c0.692-0.199,1.093-0.921,0.894-1.612l-6.019-20.978     c-0.199-0.692-0.921-1.091-1.613-0.894c-0.692,0.199-1.092,0.921-0.894,1.613l6.018,20.978     C421.76,347.431,422.282,347.803,422.849,347.803z"/>
		</g>
		<g style="opacity:0.4;enable-background:new    ;">
			<path d="M415.212,347.803c0.119,0,0.24-0.017,0.36-0.051c0.692-0.199,1.092-0.921,0.894-1.612l-6.018-20.978     c-0.199-0.692-0.92-1.091-1.613-0.894c-0.692,0.199-1.092,0.921-0.894,1.613l6.018,20.978     C414.124,347.431,414.646,347.803,415.212,347.803z"/>
		</g>
		<g style="opacity:0.4;enable-background:new    ;">
			<path d="M407.577,347.803c0.119,0,0.24-0.017,0.36-0.051c0.692-0.199,1.092-0.921,0.894-1.612l-6.018-20.978     c-0.199-0.692-0.921-1.091-1.613-0.894c-0.692,0.199-1.092,0.921-0.894,1.613l6.018,20.978     C406.488,347.431,407.01,347.803,407.577,347.803z"/>
		</g>
		<g style="opacity:0.4;enable-background:new    ;">
			<path d="M399.941,347.803c0.119,0,0.24-0.017,0.36-0.051c0.692-0.199,1.092-0.921,0.894-1.612l-6.018-20.978     c-0.199-0.692-0.92-1.091-1.613-0.894c-0.692,0.199-1.092,0.921-0.894,1.613l6.018,20.978     C398.852,347.431,399.374,347.803,399.941,347.803z"/>
		</g>
		<g style="opacity:0.4;enable-background:new    ;">
			<path d="M392.305,347.803c0.119,0,0.24-0.017,0.36-0.051c0.692-0.199,1.092-0.921,0.894-1.612l-6.019-20.978     c-0.199-0.692-0.921-1.091-1.613-0.894c-0.692,0.199-1.093,0.921-0.894,1.613l6.019,20.978     C391.216,347.431,391.739,347.803,392.305,347.803z"/>
		</g>
		<g style="opacity:0.4;enable-background:new    ;">
			<path d="M430.485,380.17c0.119,0,0.24,0.017,0.36,0.051c0.692,0.199,1.092,0.921,0.894,1.612l-6.018,20.978     c-0.199,0.692-0.921,1.091-1.613,0.894c-0.692-0.199-1.092-0.921-0.894-1.613l6.018-20.977     C429.396,380.542,429.918,380.17,430.485,380.17z"/>
		</g>
		<g style="opacity:0.4;enable-background:new    ;">
			<path d="M422.849,380.17c0.119,0,0.24,0.017,0.36,0.051c0.692,0.199,1.093,0.921,0.894,1.612l-6.019,20.978     c-0.199,0.692-0.921,1.091-1.613,0.894c-0.692-0.199-1.092-0.921-0.894-1.613l6.018-20.977     C421.76,380.542,422.282,380.17,422.849,380.17z"/>
		</g>
		<g style="opacity:0.4;enable-background:new    ;">
			<path d="M446.748,347.803c0.119,0,0.24-0.017,0.36-0.051c0.692-0.199,1.092-0.921,0.894-1.612l-6.018-20.978     c-0.198-0.692-0.921-1.091-1.613-0.894c-0.692,0.199-1.092,0.921-0.894,1.613l6.018,20.978     C445.659,347.431,446.181,347.803,446.748,347.803z"/>
		</g>
		<g style="opacity:0.4;enable-background:new    ;">
			<path d="M439.112,347.803c0.119,0,0.24-0.017,0.36-0.051c0.692-0.199,1.093-0.921,0.894-1.612l-6.019-20.978     c-0.199-0.692-0.921-1.091-1.613-0.894c-0.692,0.199-1.092,0.921-0.894,1.613l6.018,20.978     C438.023,347.431,438.545,347.803,439.112,347.803z"/>
		</g>
		<g style="opacity:0.4;enable-background:new    ;">
			<path d="M446.748,380.17c0.119,0,0.24,0.017,0.36,0.051c0.692,0.199,1.092,0.921,0.894,1.612l-6.018,20.978     c-0.198,0.692-0.921,1.091-1.613,0.894c-0.692-0.199-1.092-0.921-0.894-1.613l6.018-20.977     C445.659,380.542,446.181,380.17,446.748,380.17z"/>
		</g>
		<g style="opacity:0.4;enable-background:new    ;">
			<path d="M439.112,380.17c0.119,0,0.24,0.017,0.36,0.051c0.692,0.199,1.093,0.921,0.894,1.612l-6.019,20.978     c-0.199,0.692-0.921,1.091-1.613,0.894c-0.692-0.199-1.092-0.921-0.894-1.613l6.018-20.977     C438.023,380.542,438.545,380.17,439.112,380.17z"/>
		</g>
		<g style="opacity:0.4;enable-background:new    ;">
			<path d="M415.212,380.17c0.119,0,0.24,0.017,0.36,0.051c0.692,0.199,1.092,0.921,0.894,1.612l-6.018,20.978     c-0.199,0.692-0.92,1.091-1.613,0.894c-0.692-0.199-1.092-0.921-0.894-1.613l6.018-20.977     C414.124,380.542,414.646,380.17,415.212,380.17z"/>
		</g>
		<g style="opacity:0.4;enable-background:new    ;">
			<path d="M407.577,380.17c0.119,0,0.24,0.017,0.36,0.051c0.692,0.199,1.092,0.921,0.894,1.612l-6.018,20.978     c-0.199,0.692-0.921,1.091-1.613,0.894c-0.692-0.199-1.092-0.921-0.894-1.613l6.018-20.977     C406.488,380.542,407.01,380.17,407.577,380.17z"/>
		</g>
		<g style="opacity:0.4;enable-background:new    ;">
			<path d="M399.941,380.17c0.119,0,0.24,0.017,0.36,0.051c0.692,0.199,1.092,0.921,0.894,1.612l-6.018,20.978     c-0.199,0.692-0.92,1.091-1.613,0.894c-0.692-0.199-1.092-0.921-0.894-1.613l6.018-20.977     C398.852,380.542,399.374,380.17,399.941,380.17z"/>
		</g>
		<g style="opacity:0.4;enable-background:new    ;">
			<path d="M392.305,380.17c0.119,0,0.24,0.017,0.36,0.051c0.692,0.199,1.092,0.921,0.894,1.612l-6.019,20.978     c-0.199,0.692-0.921,1.091-1.613,0.894c-0.692-0.199-1.093-0.921-0.894-1.613l6.019-20.977     C391.216,380.542,391.739,380.17,392.305,380.17z"/>
		</g>
		<path style="fill:#407BFF;" d="M277.65,357.773h6.9l7.574-26.926c0.72-2.558,3.052-4.325,5.71-4.325h23.096    c2.657,0,4.989,1.766,5.709,4.323l7.583,26.927h126.704c1.995,0,3.612,1.617,3.612,3.612v5.203c0,1.995-1.617,3.612-3.612,3.612    H334.222l-7.583,26.927c-0.72,2.557-3.052,4.323-5.709,4.323h-23.099c-2.656,0-4.987-1.766-5.708-4.322l-7.591-26.928h-6.881    c-1.995,0-3.612-1.617-3.612-3.612v-5.203C274.039,359.39,275.655,357.773,277.65,357.773z"/>
		<path style="opacity:0.2;enable-background:new    ;" d="M274.039,361.385v5.203c0,1.995,1.616,3.612,3.612,3.612h0.574    l10.575,35.571c1.174,3.925,4.785,6.624,8.88,6.624h23.419c4.095,0,7.706-2.699,8.867-6.624l10.575-35.571h0.574    c1.995,0,3.612-1.617,3.612-3.612v-5.203c0-1.995-1.617-3.612-3.612-3.612h-0.574l-10.575-35.571    c-1.161-3.925-4.772-6.624-8.867-6.624h-23.419c-4.094,0-7.706,2.699-8.88,6.624l-10.575,35.571h-0.574    C275.655,357.773,274.039,359.39,274.039,361.385z"/>
		<path style="opacity:0.4;fill:#FFFFFF;enable-background:new    ;" d="M277.65,357.773h6.9l7.574-26.926    c0.72-2.558,3.052-4.325,5.71-4.325h23.096c2.657,0,4.989,1.766,5.709,4.323l7.583,26.927h126.704    c1.995,0,3.612,1.617,3.612,3.612v5.203c0,1.995-1.617,3.612-3.612,3.612H334.222l-7.583,26.927    c-0.72,2.557-3.052,4.323-5.709,4.323h-23.099c-2.656,0-4.987-1.766-5.708-4.322l-7.591-26.928h-6.881    c-1.995,0-3.612-1.617-3.612-3.612v-5.203C274.039,359.39,275.655,357.773,277.65,357.773z"/>
		<g>
			<g style="opacity:0.4;">
				<path d="M295.7,362.648c0,0.72,0.257,1.304,0.574,1.304h25.678c0.318,0,0.574-0.584,0.574-1.304s-0.257-1.304-0.574-1.304      h-25.678C295.957,361.344,295.7,361.928,295.7,362.648z"/>
			</g>
			<g style="opacity:0.4;">
				<path d="M295.7,356.5c0,0.72,0.257,1.304,0.574,1.304h25.678c0.318,0,0.574-0.584,0.574-1.304c0-0.72-0.257-1.304-0.574-1.304      h-25.678C295.957,355.197,295.7,355.78,295.7,356.5z"/>
			</g>
			<g style="opacity:0.4;">
				<path d="M295.7,350.353c0,0.72,0.257,1.304,0.574,1.304h25.678c0.318,0,0.574-0.584,0.574-1.304s-0.257-1.304-0.574-1.304      h-25.678C295.957,349.049,295.7,349.633,295.7,350.353z"/>
			</g>
			<g style="opacity:0.4;">
				<path d="M295.7,344.205c0,0.72,0.257,1.304,0.574,1.304h25.678c0.318,0,0.574-0.584,0.574-1.304c0-0.72-0.257-1.304-0.574-1.304      h-25.678C295.957,342.901,295.7,343.485,295.7,344.205z"/>
			</g>
			<g style="opacity:0.4;">
				<path d="M295.7,338.058c0,0.72,0.257,1.304,0.574,1.304h25.678c0.318,0,0.574-0.584,0.574-1.304c0-0.72-0.257-1.304-0.574-1.304      h-25.678C295.957,336.754,295.7,337.337,295.7,338.058z"/>
			</g>
		</g>
		<g>
			<g style="opacity:0.4;">
				<path d="M295.7,393.772c0,0.72,0.257,1.304,0.574,1.304h25.678c0.318,0,0.574-0.584,0.574-1.304c0-0.72-0.257-1.304-0.574-1.304      h-25.678C295.957,392.468,295.7,393.052,295.7,393.772z"/>
			</g>
			<g style="opacity:0.4;">
				<path d="M295.7,387.624c0,0.72,0.257,1.304,0.574,1.304h25.678c0.318,0,0.574-0.584,0.574-1.304s-0.257-1.304-0.574-1.304      h-25.678C295.957,386.32,295.7,386.904,295.7,387.624z"/>
			</g>
			<g style="opacity:0.4;">
				<path d="M295.7,381.476c0,0.72,0.257,1.304,0.574,1.304h25.678c0.318,0,0.574-0.584,0.574-1.304c0-0.72-0.257-1.304-0.574-1.304      h-25.678C295.957,380.172,295.7,380.756,295.7,381.476z"/>
			</g>
			<g style="opacity:0.4;">
				<path d="M295.7,375.328c0,0.72,0.257,1.304,0.574,1.304h25.678c0.318,0,0.574-0.584,0.574-1.304s-0.257-1.304-0.574-1.304      h-25.678C295.957,374.025,295.7,374.608,295.7,375.328z"/>
			</g>
			<g style="opacity:0.4;">
				<path d="M295.7,369.181c0,0.72,0.257,1.304,0.574,1.304h25.678c0.318,0,0.574-0.584,0.574-1.304s-0.257-1.304-0.574-1.304      h-25.678C295.957,367.877,295.7,368.461,295.7,369.181z"/>
			</g>
		</g>
	</g>
</g>
</svg>